<svg width="32" height="32" viewBox="0 0 32 32" fill="none" xmlns="http://www.w3.org/2000/svg">
<style>path { fill: black; } @media (prefers-color-scheme: dark) { path { fill: white; } }</style>
<path d="M21 5C22.6569 5 24 6.34315 24 8V24C24 25.6569 22.6569 27 21 27H11C9.34315 27 8 25.6569 8 24V8C8 6.34315 9.34315 5 11 5H21ZM16 20.5C15.1716 20.5 14.5 21.1716 14.5 22C14.5 22.8284 15.1716 23.5 16 23.5H16.0098C16.8382 23.5 17.5098 22.8284 17.5098 22C17.5098 21.1716 16.8382 20.5 16.0098 20.5H16Z"/>
</svg>
